<mxfile host="app.diagrams.net" modified="2020-12-16T08:43:19.715Z" agent="5.0 (Windows NT 10.0; WOW64) AppleWebKit/537.36 (KHTML, like Gecko) Chrome/76.0.3809.87 Safari/537.36" etag="XOW313Ejhg9AiLj4559i" version="13.10.0" type="github">
  <diagram name="Page-1" id="74e2e168-ea6b-b213-b513-2b3c1d86103e">
    <mxGraphModel dx="1422" dy="762" grid="1" gridSize="10" guides="1" tooltips="1" connect="1" arrows="1" fold="1" page="1" pageScale="1" pageWidth="1100" pageHeight="850" background="#ffffff" math="0" shadow="0">
      <root>
        <mxCell id="0" />
        <mxCell id="1" parent="0" />
        <mxCell id="Wx8eUFAgv1iPd0HW5qv9-2" value="&lt;h1&gt;&lt;span style=&quot;text-align: center&quot;&gt;&lt;font style=&quot;font-size: 18px&quot;&gt;激活流程理解&lt;/font&gt;&lt;/span&gt;&lt;/h1&gt;" style="text;html=1;strokeColor=none;fillColor=none;spacing=5;spacingTop=-20;whiteSpace=wrap;overflow=hidden;rounded=0;" vertex="1" parent="1">
          <mxGeometry x="60" y="30" width="140" height="70" as="geometry" />
        </mxCell>
        <mxCell id="Wx8eUFAgv1iPd0HW5qv9-3" value="高德" style="rounded=1;whiteSpace=wrap;html=1;fillColor=#f8cecc;strokeColor=#b85450;shadow=0;sketch=1;" vertex="1" parent="1">
          <mxGeometry x="760" y="184" width="120" height="60" as="geometry" />
        </mxCell>
        <mxCell id="Wx8eUFAgv1iPd0HW5qv9-4" value="RTK" style="rounded=1;whiteSpace=wrap;html=1;fillColor=#f8cecc;strokeColor=#b85450;shadow=0;sketch=1;" vertex="1" parent="1">
          <mxGeometry x="1040" y="184" width="120" height="60" as="geometry" />
        </mxCell>
        <mxCell id="Wx8eUFAgv1iPd0HW5qv9-7" value="" style="shape=mxgraph.signs.transportation.car_1;html=1;pointerEvents=1;fillColor=#000000;strokeColor=none;verticalLabelPosition=bottom;verticalAlign=top;align=center;shadow=0;sketch=0;" vertex="1" parent="1">
          <mxGeometry x="520" y="170" width="99" height="88" as="geometry" />
        </mxCell>
        <mxCell id="Wx8eUFAgv1iPd0HW5qv9-8" value="授权服务" style="rounded=1;whiteSpace=wrap;html=1;shadow=0;sketch=1;fillColor=#f8cecc;strokeColor=#b85450;" vertex="1" parent="1">
          <mxGeometry x="250" y="184" width="120" height="60" as="geometry" />
        </mxCell>
        <mxCell id="Wx8eUFAgv1iPd0HW5qv9-18" style="edgeStyle=orthogonalEdgeStyle;rounded=0;sketch=1;orthogonalLoop=1;jettySize=auto;html=1;exitX=1;exitY=0.5;exitDx=0;exitDy=0;entryX=0;entryY=0.5;entryDx=0;entryDy=0;" edge="1" parent="1" source="Wx8eUFAgv1iPd0HW5qv9-11" target="Wx8eUFAgv1iPd0HW5qv9-16">
          <mxGeometry relative="1" as="geometry" />
        </mxCell>
        <mxCell id="Wx8eUFAgv1iPd0HW5qv9-28" style="edgeStyle=orthogonalEdgeStyle;rounded=0;sketch=1;orthogonalLoop=1;jettySize=auto;html=1;entryX=0.5;entryY=1;entryDx=0;entryDy=0;" edge="1" parent="1" source="Wx8eUFAgv1iPd0HW5qv9-11" target="Wx8eUFAgv1iPd0HW5qv9-23">
          <mxGeometry relative="1" as="geometry">
            <Array as="points">
              <mxPoint x="570" y="470" />
              <mxPoint x="310" y="470" />
            </Array>
          </mxGeometry>
        </mxCell>
        <mxCell id="Wx8eUFAgv1iPd0HW5qv9-11" value="环境检查" style="rounded=1;whiteSpace=wrap;html=1;shadow=0;sketch=1;fillColor=#d5e8d4;strokeColor=#82b366;" vertex="1" parent="1">
          <mxGeometry x="509.5" y="334" width="120" height="60" as="geometry" />
        </mxCell>
        <mxCell id="Wx8eUFAgv1iPd0HW5qv9-30" style="edgeStyle=orthogonalEdgeStyle;rounded=0;sketch=1;orthogonalLoop=1;jettySize=auto;html=1;entryX=0;entryY=0.5;entryDx=0;entryDy=0;" edge="1" parent="1" source="Wx8eUFAgv1iPd0HW5qv9-16" target="Wx8eUFAgv1iPd0HW5qv9-17">
          <mxGeometry relative="1" as="geometry" />
        </mxCell>
        <mxCell id="Wx8eUFAgv1iPd0HW5qv9-16" value="服务下单" style="rounded=1;whiteSpace=wrap;html=1;shadow=0;sketch=1;fillColor=#d5e8d4;strokeColor=#82b366;" vertex="1" parent="1">
          <mxGeometry x="770" y="334" width="120" height="60" as="geometry" />
        </mxCell>
        <mxCell id="Wx8eUFAgv1iPd0HW5qv9-17" value="服务下单" style="rounded=1;whiteSpace=wrap;html=1;shadow=0;sketch=1;fillColor=#d5e8d4;strokeColor=#82b366;" vertex="1" parent="1">
          <mxGeometry x="1050" y="334" width="120" height="60" as="geometry" />
        </mxCell>
        <mxCell id="Wx8eUFAgv1iPd0HW5qv9-19" value="成功" style="text;html=1;align=center;verticalAlign=middle;resizable=0;points=[];autosize=1;" vertex="1" parent="1">
          <mxGeometry x="670" y="334" width="40" height="20" as="geometry" />
        </mxCell>
        <mxCell id="Wx8eUFAgv1iPd0HW5qv9-26" style="edgeStyle=orthogonalEdgeStyle;rounded=0;sketch=1;orthogonalLoop=1;jettySize=auto;html=1;entryX=0;entryY=0.5;entryDx=0;entryDy=0;" edge="1" parent="1" source="Wx8eUFAgv1iPd0HW5qv9-22" target="Wx8eUFAgv1iPd0HW5qv9-23">
          <mxGeometry relative="1" as="geometry">
            <Array as="points">
              <mxPoint x="78" y="370" />
            </Array>
          </mxGeometry>
        </mxCell>
        <mxCell id="Wx8eUFAgv1iPd0HW5qv9-22" value="" style="shape=mxgraph.signs.people.man_2;html=1;pointerEvents=1;fillColor=#000000;strokeColor=none;verticalLabelPosition=bottom;verticalAlign=top;align=center;shadow=0;sketch=0;" vertex="1" parent="1">
          <mxGeometry x="60" y="164.5" width="36" height="99" as="geometry" />
        </mxCell>
        <mxCell id="Wx8eUFAgv1iPd0HW5qv9-27" style="edgeStyle=orthogonalEdgeStyle;rounded=0;sketch=1;orthogonalLoop=1;jettySize=auto;html=1;exitX=1;exitY=0.5;exitDx=0;exitDy=0;entryX=0;entryY=0.5;entryDx=0;entryDy=0;" edge="1" parent="1" source="Wx8eUFAgv1iPd0HW5qv9-23" target="Wx8eUFAgv1iPd0HW5qv9-11">
          <mxGeometry relative="1" as="geometry">
            <mxPoint x="510" y="370" as="targetPoint" />
          </mxGeometry>
        </mxCell>
        <mxCell id="Wx8eUFAgv1iPd0HW5qv9-23" value="激活入口" style="rounded=1;whiteSpace=wrap;html=1;shadow=0;sketch=1;fillColor=#d5e8d4;strokeColor=#82b366;" vertex="1" parent="1">
          <mxGeometry x="250" y="334" width="120" height="60" as="geometry" />
        </mxCell>
        <mxCell id="Wx8eUFAgv1iPd0HW5qv9-29" value="失败" style="text;html=1;align=center;verticalAlign=middle;resizable=0;points=[];autosize=1;" vertex="1" parent="1">
          <mxGeometry x="520" y="420" width="40" height="20" as="geometry" />
        </mxCell>
      </root>
    </mxGraphModel>
  </diagram>
</mxfile>
